<mxfile host="Electron" modified="2023-07-17T22:11:47.373Z" agent="Mozilla/5.0 (Windows NT 10.0; Win64; x64) AppleWebKit/537.36 (KHTML, like Gecko) draw.io/21.6.1 Chrome/112.0.5615.204 Electron/24.6.1 Safari/537.36" etag="j1Pkqw2bN5Y4nAC-UuwQ" version="21.6.1" type="device">
  <diagram name="Page-1" id="NBkd_Aj7kGqrIYNp_r1Y">
    <mxGraphModel dx="273" dy="1035" grid="1" gridSize="10" guides="1" tooltips="1" connect="1" arrows="1" fold="1" page="1" pageScale="1" pageWidth="1100" pageHeight="850" math="0" shadow="0">
      <root>
        <mxCell id="0" />
        <mxCell id="1" parent="0" />
        <mxCell id="oVWY7G-_wbksF_bXMuwP-3" value="" style="ellipse;whiteSpace=wrap;html=1;aspect=fixed;" vertex="1" parent="1">
          <mxGeometry x="1210" y="250" width="300" height="300" as="geometry" />
        </mxCell>
        <mxCell id="oVWY7G-_wbksF_bXMuwP-4" value="" style="line;strokeWidth=2;direction=south;html=1;" vertex="1" parent="1">
          <mxGeometry x="1355" y="250" width="10" height="300" as="geometry" />
        </mxCell>
        <mxCell id="oVWY7G-_wbksF_bXMuwP-5" value="&lt;b style=&quot;font-size: 18px;&quot;&gt;Volitile Equipose&lt;/b&gt;" style="text;html=1;strokeColor=none;fillColor=none;align=center;verticalAlign=middle;whiteSpace=wrap;rounded=0;fontSize=18;" vertex="1" parent="1">
          <mxGeometry x="1230" y="350" width="110" height="100" as="geometry" />
        </mxCell>
        <mxCell id="oVWY7G-_wbksF_bXMuwP-8" value="Model of Leechseed Theory of Narrative Design (LTND)" style="text;html=1;strokeColor=none;fillColor=none;align=left;verticalAlign=middle;whiteSpace=wrap;rounded=0;fontSize=16;fontStyle=1" vertex="1" parent="1">
          <mxGeometry x="1160" y="210" width="430" height="30" as="geometry" />
        </mxCell>
        <mxCell id="oVWY7G-_wbksF_bXMuwP-10" value="&lt;b style=&quot;font-size: 18px;&quot;&gt;Memetic Topos&lt;/b&gt;" style="text;html=1;strokeColor=none;fillColor=none;align=center;verticalAlign=middle;whiteSpace=wrap;rounded=0;fontSize=18;" vertex="1" parent="1">
          <mxGeometry x="1370" y="350" width="110" height="100" as="geometry" />
        </mxCell>
        <mxCell id="oVWY7G-_wbksF_bXMuwP-11" value="American LIterature Canon Bloom, Myth, Memesis" style="text;html=1;strokeColor=none;fillColor=none;align=center;verticalAlign=middle;whiteSpace=wrap;rounded=0;" vertex="1" parent="1">
          <mxGeometry x="1620" y="430" width="290" height="180" as="geometry" />
        </mxCell>
        <mxCell id="oVWY7G-_wbksF_bXMuwP-12" value="The American Hyper Renaissance&amp;nbsp; - A New Epoch of American Entertainment" style="text;html=1;strokeColor=none;fillColor=none;align=center;verticalAlign=middle;whiteSpace=wrap;rounded=0;" vertex="1" parent="1">
          <mxGeometry x="1620" y="430" width="280" height="30" as="geometry" />
        </mxCell>
      </root>
    </mxGraphModel>
  </diagram>
</mxfile>
